{
    "asset" : {
        "generator" : "Khronos glTF Blender I/O v1.5.17",
        "version" : "2.0"
    },
    "scene" : 0,
    "scenes" : [
        {
            "name" : "Scene",
            "nodes" : [
                0
            ]
        }
    ],
    "nodes" : [
        {
            "mesh" : 0,
            "name" : "Exploding Head",
            "rotation" : [
                0,
                -0.7071068286895752,
                0,
                0.7071068286895752
            ],
            "translation" : [
                0,
                -0.15978288650512695,
                0
            ]
        }
    ],
    "materials" : [
        {
            "doubleSided" : true,
            "name" : "Yellow_body",
            "pbrMetallicRoughness" : {
                "baseColorTexture" : {
                    "index" : 0
                },
                "metallicFactor" : 0,
                "roughnessFactor" : 0.5
            }
        },
        {
            "doubleSided" : true,
            "name" : "DKBrown",
            "pbrMetallicRoughness" : {
                "baseColorFactor" : [
                    0.010021701455116272,
                    0.0023923655971884727,
                    0.0018060366855934262,
                    1
                ],
                "metallicFactor" : 0,
                "roughnessFactor" : 0.5
            }
        },
        {
            "doubleSided" : true,
            "name" : "Lightgray",
            "pbrMetallicRoughness" : {
                "baseColorFactor" : [
                    0.4124824106693268,
                    0.38176509737968445,
                    0.42002442479133606,
                    1
                ],
                "metallicFactor" : 0,
                "roughnessFactor" : 0.5
            }
        }
    ],
    "meshes" : [
        {
            "name" : "Cube.035",
            "primitives" : [
                {
                    "attributes" : {
                        "POSITION" : 0,
                        "NORMAL" : 1,
                        "TEXCOORD_0" : 2
                    },
                    "indices" : 3,
                    "material" : 0
                },
                {
                    "attributes" : {
                        "POSITION" : 4,
                        "NORMAL" : 5,
                        "TEXCOORD_0" : 6
                    },
                    "indices" : 7,
                    "material" : 1
                },
                {
                    "attributes" : {
                        "POSITION" : 8,
                        "NORMAL" : 9,
                        "TEXCOORD_0" : 10
                    },
                    "indices" : 11,
                    "material" : 2
                }
            ]
        }
    ],
    "textures" : [
        {
            "sampler" : 0,
            "source" : 0
        }
    ],
    "images" : [
        {
            "bufferView" : 4,
            "mimeType" : "image/png",
            "name" : "Rectangle 863"
        }
    ],
    "accessors" : [
        {
            "bufferView" : 0,
            "componentType" : 5126,
            "count" : 2276,
            "max" : [
                0.8446488380432129,
                0.27019599080085754,
                0.8446488380432129
            ],
            "min" : [
                -0.8446488380432129,
                -0.8446488380432129,
                -0.8446488380432129
            ],
            "type" : "VEC3"
        },
        {
            "bufferView" : 1,
            "componentType" : 5126,
            "count" : 2276,
            "type" : "VEC3"
        },
        {
            "bufferView" : 2,
            "componentType" : 5126,
            "count" : 2276,
            "type" : "VEC2"
        },
        {
            "bufferView" : 3,
            "componentType" : 5123,
            "count" : 12036,
            "type" : "SCALAR"
        },
        {
            "bufferView" : 5,
            "componentType" : 5126,
            "count" : 1696,
            "max" : [
                0.8526483774185181,
                0.09594588726758957,
                0.36936530470848083
            ],
            "min" : [
                0.5213074088096619,
                -0.5455718040466309,
                -0.371944397687912
            ],
            "type" : "VEC3"
        },
        {
            "bufferView" : 6,
            "componentType" : 5126,
            "count" : 1696,
            "type" : "VEC3"
        },
        {
            "bufferView" : 7,
            "componentType" : 5126,
            "count" : 1696,
            "type" : "VEC2"
        },
        {
            "bufferView" : 8,
            "componentType" : 5123,
            "count" : 7548,
            "type" : "SCALAR"
        },
        {
            "bufferView" : 9,
            "componentType" : 5126,
            "count" : 10602,
            "max" : [
                0.7527053952217102,
                1.3948509693145752,
                0.9956547617912292
            ],
            "min" : [
                -0.7527053952217102,
                0.008191962726414204,
                -0.9137396216392517
            ],
            "type" : "VEC3"
        },
        {
            "bufferView" : 10,
            "componentType" : 5126,
            "count" : 10602,
            "type" : "VEC3"
        },
        {
            "bufferView" : 11,
            "componentType" : 5126,
            "count" : 10602,
            "type" : "VEC2"
        },
        {
            "bufferView" : 12,
            "componentType" : 5123,
            "count" : 62712,
            "type" : "SCALAR"
        }
    ],
    "bufferViews" : [
        {
            "buffer" : 0,
            "byteLength" : 27312,
            "byteOffset" : 0
        },
        {
            "buffer" : 0,
            "byteLength" : 27312,
            "byteOffset" : 27312
        },
        {
            "buffer" : 0,
            "byteLength" : 18208,
            "byteOffset" : 54624
        },
        {
            "buffer" : 0,
            "byteLength" : 24072,
            "byteOffset" : 72832
        },
        {
            "buffer" : 0,
            "byteLength" : 85292,
            "byteOffset" : 96904
        },
        {
            "buffer" : 0,
            "byteLength" : 20352,
            "byteOffset" : 182196
        },
        {
            "buffer" : 0,
            "byteLength" : 20352,
            "byteOffset" : 202548
        },
        {
            "buffer" : 0,
            "byteLength" : 13568,
            "byteOffset" : 222900
        },
        {
            "buffer" : 0,
            "byteLength" : 15096,
            "byteOffset" : 236468
        },
        {
            "buffer" : 0,
            "byteLength" : 127224,
            "byteOffset" : 251564
        },
        {
            "buffer" : 0,
            "byteLength" : 127224,
            "byteOffset" : 378788
        },
        {
            "buffer" : 0,
            "byteLength" : 84816,
            "byteOffset" : 506012
        },
        {
            "buffer" : 0,
            "byteLength" : 125424,
            "byteOffset" : 590828
        }
    ],
    "samplers" : [
        {
            "magFilter" : 9729,
            "minFilter" : 9987
        }
    ],
    "buffers" : [
        {
            "byteLength" : 716252,
            "uri" : "data:application/octet-stream;base64,"
        }
    ]
}
